<svg xmlns="http://www.w3.org/2000/svg" width="59.075" height="59.075" viewBox="0 0 59.075 59.075">
  <g id="Icon_feather-instagram" data-name="Icon feather-instagram" transform="translate(1 1)">
    <path id="Path_44" data-name="Path 44" d="M17.269,3H45.806A14.269,14.269,0,0,1,60.075,17.269V45.806A14.269,14.269,0,0,1,45.806,60.075H17.269A14.269,14.269,0,0,1,3,45.806V17.269A14.269,14.269,0,0,1,17.269,3Z" transform="translate(-3 -3)" fill="none" stroke="#f1f1f1" stroke-linecap="round" stroke-linejoin="round" stroke-width="2"/>
    <path id="Path_45" data-name="Path 45" d="M34.771,21.676a11.415,11.415,0,1,1-9.617-9.617,11.415,11.415,0,0,1,9.617,9.617Z" transform="translate(5.181 5.064)" fill="none" stroke="#f1f1f1" stroke-linecap="round" stroke-linejoin="round" stroke-width="2"/>
    <path id="Path_46" data-name="Path 46" d="M26.25,9.75h0" transform="translate(17.983 3.092)" fill="none" stroke="#f1f1f1" stroke-linecap="round" stroke-linejoin="round" stroke-width="2"/>
  </g>
</svg>
