<svg xmlns="http://www.w3.org/2000/svg" width="66.704" height="53.34" viewBox="0 0 66.704 53.34">
  <path id="Icon_awesome-medium-m" data-name="Icon awesome-medium-m" d="M8.663,14.974a2.525,2.525,0,0,0-.816-2.114L1.814,5.584V4.5H20.569l14.5,31.8L47.817,4.5H65.7V5.584l-5.163,4.949a1.507,1.507,0,0,0-.575,1.445V48.363a1.507,1.507,0,0,0,.575,1.445l5.043,4.949V55.84H40.206V54.757l5.23-5.07c.508-.508.508-.669.508-1.445V18.84L31.4,55.747H29.438L12.529,18.84V43.574a3.369,3.369,0,0,0,.936,2.836l6.8,8.24v1.084H1v-1.07l6.8-8.254a3.259,3.259,0,0,0,.869-2.836Z" transform="translate(0.002 -3.5)" fill="none" stroke="#f1f1f1" stroke-width="2"/>
</svg>
